<svg xmlns="http://www.w3.org/2000/svg" width="405.867" height="355.567" viewBox="0 0 405.867 355.567">
  <g id="Group_5467" data-name="Group 5467" transform="translate(-44.087 -17.19)">
    <g id="Group_4299" data-name="Group 4299" transform="translate(72.325 45.33)">
      <g id="Group_4298" data-name="Group 4298">
        <path id="Path_14632" data-name="Path 14632" d="M95.359,134.175c-26.889,9.956-27.323,33.68-25.442,44.725.041.3.352.8.279.858-1,.611-47.405-81.389,80.94-107.3,7.57-23.823,2.708-46.388,2.708-46.388-174.644,107.7-69.869,176-67.76,173.919.022-.057-.234-.231-.545-.725C79.607,190.177,63.484,164.5,95.2,136.6c1.042-.9,2.917-2.366,5.141-4.064h-.025a43.717,43.717,0,0,0-4.954,1.638" transform="translate(-53.002 -26.074)" fill="#009e98"/>
        <path id="Path_14633" data-name="Path 14633" d="M81.007,67.62c.114,0,.2.016.307.016,12.949.814,28.124,4.077,45.856,10.31a103.65,103.65,0,0,0,26.173-39.284c-24.532,1-45.207,2.968-62.723,6.478a1.249,1.249,0,0,1-.187.035c-.114.377-.228.748-.348,1.1C87.8,53.17,85.324,60.627,81.007,67.62" transform="translate(7.7 1.213)" fill="#ce0033"/>
        <path id="Path_14634" data-name="Path 14634" d="M64.576,148.016c.073-.057-.238-.557-.279-.858-1.881-11.045-1.448-34.77,25.442-44.725a43.727,43.727,0,0,1,4.954-1.638c-25.245-.478-31.979,14.938-33.307,23.4-.108.817-.124,1.039-.279.985-1.359-.786-1.359-66.584,74.982-62.014,4.317-6.994,6.8-14.45,9.078-21.343.12-.355.234-.725.348-1.1C17.17,66.626,63.571,148.627,64.576,148.016" transform="translate(-47.381 5.669)" fill="#ad0615"/>
        <path id="Path_14635" data-name="Path 14635" d="M155.956,51.182a2.9,2.9,0,0,0-.475-.117.178.178,0,0,0-.1.079c-12.556,11.634-29.651,17.865-55.124,21.59C92.244,73.9,87.626,74.5,81.047,75.55a126.866,126.866,0,0,0-13.076,2.819h-.025c.538,0,1.055.016,1.6.044a65.263,65.263,0,0,1,9.379,1.143c9.67,1.853,23.946,6.126,36.4,10.937C177.292,114.653,217.2,79.836,217.2,79.836c-23.215-13.126-43.522-22.391-61.241-28.653" transform="translate(-20.61 28.094)" fill="#ffc900"/>
        <path id="Path_14636" data-name="Path 14636" d="M67.938,59.685h0" transform="translate(-20.627 46.779)" fill="#f99300"/>
        <path id="Path_14637" data-name="Path 14637" d="M109.3,47.805c-.155.285-.336.554-.51.843-5.5,8.695-15.524,18.153-27.234,26.721C78.34,77.716,72.426,82,67.954,85.435a126.863,126.863,0,0,1,13.076-2.819c6.579-1.045,11.2-1.653,19.2-2.816,25.473-3.725,42.568-9.956,55.124-21.59a.178.178,0,0,1,.1-.079c-17.732-6.234-32.907-9.5-45.856-10.31-.111,0-.193-.016-.307-.016" transform="translate(-20.592 21.028)" fill="#f99300"/>
        <path id="Path_14638" data-name="Path 14638" d="M132.013,48.8c.174-.288.355-.557.51-.843-76.34-4.571-76.34,61.228-74.982,62.014.155.054.171-.168.279-.985,1.327-8.46,8.061-23.877,33.306-23.4h.051c4.473-3.43,10.386-7.719,13.6-10.066,11.71-8.568,21.732-18.026,27.234-26.721" transform="translate(-43.815 20.873)" fill="#ffb400"/>
      </g>
      <path id="Path_14639" data-name="Path 14639" d="M104.968,91.655l-.786-2.8.418-.247Z" transform="translate(57.933 109.47)" fill="#009e98"/>
    </g>
    <path id="Path_14640" data-name="Path 14640" d="M99.619,41.8a15.547,15.547,0,0,1-3.247,2.863A7.46,7.46,0,0,1,91.893,45.9a9.093,9.093,0,0,1-3.269-.58A8.675,8.675,0,0,1,86,43.756a7.951,7.951,0,0,1-1.71-2.379,7.011,7.011,0,0,1-.637-2.946,8.944,8.944,0,0,1,.744-3.6,7.717,7.717,0,0,1,2.667-2.981,16.01,16.01,0,0,1,4.919-2.046,32.4,32.4,0,0,1,7.6-.947v-.526a3.692,3.692,0,0,0-1.172-3.114,5.234,5.234,0,0,0-3.576-.995,13.953,13.953,0,0,0-4.466.814c-1.052.358-2.167.763-3.221,1.245l-.877-7.026c.925-.352,1.869-.675,2.873-1.023a23.636,23.636,0,0,1,7.076-1.045,18.6,18.6,0,0,1,5.844.814,8.808,8.808,0,0,1,3.826,2.277,8.065,8.065,0,0,1,2.046,3.684,15.611,15.611,0,0,1,.542,5l-.019,8.014c0,.9.124,1.473.4,1.72a3.3,3.3,0,0,0,1.8.469l-.884,6.386c-2.924.371-5.185.2-6.706-.545a5.946,5.946,0,0,1-3.25-3.215Z" transform="translate(85.749 0)" fill="none"/>
    <path id="Path_14641" data-name="Path 14641" d="M70.612,86.42a8.454,8.454,0,0,1-2.379,1.723,6.925,6.925,0,0,1-2.955.646,8.8,8.8,0,0,1-3.617-.782,7.773,7.773,0,0,1-2.914-2.635,15.808,15.808,0,0,1-2.081-4.948,33.566,33.566,0,0,1-.95-7.589H55.2a3.8,3.8,0,0,0-3.107,1.175,5.186,5.186,0,0,0-.995,3.573,12.982,12.982,0,0,0,.8,4.447,31.817,31.817,0,0,0,1.264,3.221l-7.022.868c-.352-.868-.687-1.8-1.014-2.851a22.727,22.727,0,0,1-1.033-7.1,18.992,18.992,0,0,1,.776-5.822,9.323,9.323,0,0,1,2.271-3.836,8.568,8.568,0,0,1,3.719-2.027,16.535,16.535,0,0,1,5-.573l7.995.054c.941,0,1.511-.139,1.733-.409a3.225,3.225,0,0,0,.462-1.8l6.383.89c.386,2.927.19,5.163-.542,6.709a5.96,5.96,0,0,1-3.25,3.247v.181a14.257,14.257,0,0,1,2.92,3.234,7.574,7.574,0,0,1,1.216,4.52A9.183,9.183,0,0,1,72.2,83.8a9.44,9.44,0,0,1-1.584,2.623M59.9,72.835a17.121,17.121,0,0,0,1.41,5.838,2.911,2.911,0,0,0,4.8.779,3.817,3.817,0,0,0,.757-2.436,5.718,5.718,0,0,0-.488-2.388,4.76,4.76,0,0,0-1.353-1.793Z" transform="translate(0 96.609)" fill="none"/>
    <path id="Path_14642" data-name="Path 14642" d="M131.928,58.059a16.017,16.017,0,0,1,2.886,3.231,7.815,7.815,0,0,1,1.229,4.52,9.191,9.191,0,0,1-.589,3.256,8.3,8.3,0,0,1-1.609,2.62,7.526,7.526,0,0,1-2.328,1.726,7.246,7.246,0,0,1-2.974.643,8.55,8.55,0,0,1-3.573-.776A7.565,7.565,0,0,1,122,70.637,15.545,15.545,0,0,1,119.92,65.7,32.734,32.734,0,0,1,119,58.1h-.545a3.756,3.756,0,0,0-3.107,1.175,5.27,5.27,0,0,0-.991,3.573,14.091,14.091,0,0,0,.789,4.447,33.175,33.175,0,0,0,1.254,3.225l-7.032.871c-.333-.871-.684-1.812-.972-2.86a23.334,23.334,0,0,1-1.045-7.089,18.236,18.236,0,0,1,.8-5.828,8.711,8.711,0,0,1,2.265-3.836,8.26,8.26,0,0,1,3.716-2.027,16.509,16.509,0,0,1,5-.57l7.973.057c.909,0,1.5-.143,1.71-.409a3.323,3.323,0,0,0,.507-1.8l6.364.881c.39,2.933.2,5.169-.529,6.718a6.069,6.069,0,0,1-3.225,3.24Zm-8.774.044a16.818,16.818,0,0,0,1.406,5.838,2.8,2.8,0,0,0,2.654,1.723,2.7,2.7,0,0,0,2.125-.944,3.7,3.7,0,0,0,.786-2.436,5.554,5.554,0,0,0-.466-2.382,4.861,4.861,0,0,0-1.362-1.8Z" transform="translate(137.132 64.685)" fill="none"/>
    <g id="Group_4300" data-name="Group 4300" transform="translate(117.377 229.04)">
      <path id="Path_14643" data-name="Path 14643" d="M76.461,101.01,88.47,85.074h10.5L84.716,102.682l14.605,18.473H88.352L76.461,105.28H76.4v15.876H67.225V85.074H76.4V101.01Z" transform="translate(-67.225 -81.9)" fill="#009e98"/>
      <path id="Path_14644" data-name="Path 14644" d="M85.857,104.112a5.781,5.781,0,0,0,2.018,4.184,7.8,7.8,0,0,0,5.081,1.473,14.677,14.677,0,0,0,4.476-.722,21.939,21.939,0,0,0,4.3-1.875l.865,6.87a18.793,18.793,0,0,1-4.764,1.615,27.409,27.409,0,0,1-5.686.58,19.485,19.485,0,0,1-6.177-.925,13.009,13.009,0,0,1-4.732-2.715,11.9,11.9,0,0,1-3.031-4.415,15.72,15.72,0,0,1-1.067-5.974,16.027,16.027,0,0,1,1.067-5.977,12.875,12.875,0,0,1,3-4.561,13.672,13.672,0,0,1,4.618-2.914,16.15,16.15,0,0,1,5.86-1.039q5.716,0,8.749,3.117a11.194,11.194,0,0,1,3.028,8.141,24.547,24.547,0,0,1-.143,2.483,11,11,0,0,1-.434,2.252l-17.029.285Zm9.351-4.618v-.519a6.219,6.219,0,0,0-1.01-3.782,3.6,3.6,0,0,0-3.088-1.356,4.368,4.368,0,0,0-3.636,1.7,7.591,7.591,0,0,0-1.558,4.013Z" transform="translate(-45.734 -76.171)" fill="#009e98"/>
      <path id="Path_14645" data-name="Path 14645" d="M120.534,115.426V99.611a4.658,4.658,0,0,0-.972-3.38,3.618,3.618,0,0,0-2.639-.95,5.492,5.492,0,0,0-2.407.519,8.381,8.381,0,0,0-1.891,1.21v18.416h-8.948V99.611a4.569,4.569,0,0,0-1-3.38,3.724,3.724,0,0,0-2.667-.95,6.064,6.064,0,0,0-2.407.462A7.1,7.1,0,0,0,95.71,96.9v18.53H86.762V89.044l8.948-1.1L95.666,91.7a15,15,0,0,1,3.849-2.917,10.1,10.1,0,0,1,4.716-1.067A8.727,8.727,0,0,1,108.8,88.93a7.291,7.291,0,0,1,3.009,3.579A14.991,14.991,0,0,1,116,89.016a10.36,10.36,0,0,1,5.109-1.3,7.839,7.839,0,0,1,6.151,2.483,9.835,9.835,0,0,1,2.224,6.81v18.416Z" transform="translate(-24.878 -76.171)" fill="#009e98"/>
      <path id="Path_14646" data-name="Path 14646" d="M113.953,88.873a8.019,8.019,0,0,1,4.4-1.156,10.655,10.655,0,0,1,4.574.982,10.486,10.486,0,0,1,3.627,2.8,13.355,13.355,0,0,1,2.388,4.387,18.133,18.133,0,0,1,.862,5.8,16.243,16.243,0,0,1-1.061,6.034,13.958,13.958,0,0,1-2.908,4.59,12.561,12.561,0,0,1-4.289,2.914,13.346,13.346,0,0,1-5.15,1.014,18.173,18.173,0,0,1-2.791-.231,18.651,18.651,0,0,1-2.737-.637v12.008h-8.945V89.044l8.945-1.1v3.405A16.477,16.477,0,0,1,113.953,88.873ZM110.871,108.5a7.178,7.178,0,0,0,4.054,1.1,5.164,5.164,0,0,0,4.393-2.049,8.752,8.752,0,0,0,1.543-5.4,9.09,9.09,0,0,0-1.4-5.4,4.785,4.785,0,0,0-4.137-1.932,5.548,5.548,0,0,0-2.512.519,9.228,9.228,0,0,0-1.942,1.327Z" transform="translate(7.99 -76.171)" fill="#009e98"/>
      <path id="Path_14647" data-name="Path 14647" d="M120.3,104.112a5.772,5.772,0,0,0,2.021,4.184,7.789,7.789,0,0,0,5.081,1.473,14.672,14.672,0,0,0,4.472-.722,21.938,21.938,0,0,0,4.3-1.875l.868,6.87a18.879,18.879,0,0,1-4.764,1.615,27.454,27.454,0,0,1-5.686.58,19.491,19.491,0,0,1-6.18-.925,13.009,13.009,0,0,1-4.732-2.715,11.941,11.941,0,0,1-3.031-4.415,15.721,15.721,0,0,1-1.067-5.974,16.027,16.027,0,0,1,1.067-5.977,12.84,12.84,0,0,1,3-4.561,13.642,13.642,0,0,1,4.618-2.914,16.138,16.138,0,0,1,5.86-1.039q5.711,0,8.746,3.117a11.181,11.181,0,0,1,3.028,8.141,24.538,24.538,0,0,1-.143,2.483,10.791,10.791,0,0,1-.434,2.252l-17.029.285Zm9.354-4.618v-.519a6.24,6.24,0,0,0-1.01-3.782,3.607,3.607,0,0,0-3.088-1.356,4.37,4.37,0,0,0-3.639,1.7,7.591,7.591,0,0,0-1.558,4.013Z" transform="translate(28.926 -76.171)" fill="#009e98"/>
      <path id="Path_14648" data-name="Path 14648" d="M126.577,117.216a8.61,8.61,0,0,1-3.234-1.758,3.924,3.924,0,0,1-1.441-3.091,5.183,5.183,0,0,1,1.558-3.576,8.492,8.492,0,0,1,3.982-2.369,9.914,9.914,0,0,1-3.925-3.291,8.5,8.5,0,0,1-1.5-5.021,9.75,9.75,0,0,1,.868-4.1,9.287,9.287,0,0,1,2.509-3.291,12.417,12.417,0,0,1,4.013-2.2,17.9,17.9,0,0,1,9.93-.2,25.723,25.723,0,0,1,3.636,1.3l7.564-.634.4,7.216-5.195-.808a3.1,3.1,0,0,1,.548,1.327,7.843,7.843,0,0,1,.2,1.619,8.589,8.589,0,0,1-.868,3.807,9.162,9.162,0,0,1-2.423,3.088,11.687,11.687,0,0,1-3.722,2.049,14.381,14.381,0,0,1-4.764.751,12.528,12.528,0,0,1-1.761-.114c-.557-.076-1.166-.171-1.818-.288a4.1,4.1,0,0,0-1.067.779,1.608,1.608,0,0,0-.491,1.181q0,.926,1.125,1.3a13.326,13.326,0,0,0,3.782.374h3.174a31.587,31.587,0,0,1,5.052.374,12.482,12.482,0,0,1,3.924,1.27,6.223,6.223,0,0,1,3.437,5.92,7.863,7.863,0,0,1-1.387,4.558,12.153,12.153,0,0,1-3.722,3.465,19.372,19.372,0,0,1-5.369,2.224,25.29,25.29,0,0,1-6.322.776,28.764,28.764,0,0,1-5.109-.431,15.758,15.758,0,0,1-4.156-1.3,8.11,8.11,0,0,1-2.8-2.163,4.8,4.8,0,0,1-1.039-3.092,5.067,5.067,0,0,1,1.587-3.636A7.939,7.939,0,0,1,126.577,117.216Zm3.522.982a4.71,4.71,0,0,0-1.53,1.185,2.64,2.64,0,0,0-.608,1.761,2.9,2.9,0,0,0,1.821,2.54,10.465,10.465,0,0,0,4.935.979,18.468,18.468,0,0,0,3-.228,9.31,9.31,0,0,0,2.426-.722,4.84,4.84,0,0,0,1.615-1.156,2.255,2.255,0,0,0,.58-1.53,2.1,2.1,0,0,0-1.7-2.135,19.373,19.373,0,0,0-5.226-.519c-.846,0-1.815-.019-2.914-.057S130.6,118.236,130.1,118.2Zm.405-20.031a5.328,5.328,0,0,0,1.039,3.434,3.817,3.817,0,0,0,3.174,1.3,3.383,3.383,0,0,0,2.974-1.356,6.166,6.166,0,0,0,.95-3.608,5.448,5.448,0,0,0-1.01-3.437,3.669,3.669,0,0,0-3.088-1.3,3.559,3.559,0,0,0-2.971,1.356A5.649,5.649,0,0,0,130.5,98.167Z" transform="translate(47.532 -76.171)" fill="#009e98"/>
      <path id="Path_14649" data-name="Path 14649" d="M158.907,101.92a15.124,15.124,0,0,1-1.153,6.031,13.127,13.127,0,0,1-7.735,7.361,16.244,16.244,0,0,1-5.66.982,16.861,16.861,0,0,1-5.626-.925,12.439,12.439,0,0,1-4.533-2.74,12.914,12.914,0,0,1-3-4.476A17.179,17.179,0,0,1,131.226,96a12.9,12.9,0,0,1,3.117-4.533,13.409,13.409,0,0,1,4.65-2.8,16.745,16.745,0,0,1,5.714-.953,16.277,16.277,0,0,1,5.657.953,12.83,12.83,0,0,1,4.5,2.772,12.6,12.6,0,0,1,2.971,4.444A15.911,15.911,0,0,1,158.907,101.92Zm-8.831.086a9.374,9.374,0,0,0-1.416-5.435,4.762,4.762,0,0,0-4.184-2.04,4.693,4.693,0,0,0-4.156,2.04,9.634,9.634,0,0,0-1.384,5.492,9.212,9.212,0,0,0,1.413,5.435,4.812,4.812,0,0,0,4.184,1.983,4.71,4.71,0,0,0,4.159-2.011A9.519,9.519,0,0,0,150.076,102.006Z" transform="translate(69.062 -76.171)" fill="#009e98"/>
      <path id="Path_14650" data-name="Path 14650" d="M147.141,114.952,139.58,87.99h9l3.64,17.839,4.561-17.839h9.294l4.618,17.551,3.117-17.551h9.237l-7.621,26.962h-9.005l-5.138-17.665-5.138,17.665Z" transform="translate(89.606 -75.58)" fill="#009e98"/>
      <path id="Path_14651" data-name="Path 14651" d="M172.566,85.168l8.951-1.1v39.255h-8.951l.057-2.772a15.261,15.261,0,0,1-3.114,2.455,8.283,8.283,0,0,1-4.39,1.128,10.749,10.749,0,0,1-4.587-.982,10.5,10.5,0,0,1-3.639-2.8,13.372,13.372,0,0,1-2.395-4.387,17.94,17.94,0,0,1-.868-5.746,15.889,15.889,0,0,1,1.1-6.034A14.209,14.209,0,0,1,157.66,99.6a12.688,12.688,0,0,1,4.26-2.917,13.168,13.168,0,0,1,5.122-1.01,16.671,16.671,0,0,1,5.524.925ZM170.8,102.573a7.818,7.818,0,0,0-2.284-.317,5.163,5.163,0,0,0-4.365,2.078,8.782,8.782,0,0,0-1.571,5.426,8.313,8.313,0,0,0,1.543,5.369,4.9,4.9,0,0,0,3.994,1.907,6.007,6.007,0,0,0,2.54-.491,6.549,6.549,0,0,0,1.91-1.359V103.413A6.264,6.264,0,0,0,170.8,102.573Z" transform="translate(120.062 -84.072)" fill="#009e98"/>
      <path id="Path_14652" data-name="Path 14652" d="M179.661,112.2a16.89,16.89,0,0,1-3.2,2.886,7.836,7.836,0,0,1-4.533,1.213,8.977,8.977,0,0,1-3.234-.576,8.07,8.07,0,0,1-2.6-1.59,7.493,7.493,0,0,1-1.733-2.366,6.764,6.764,0,0,1-.634-2.914,8.375,8.375,0,0,1,.779-3.579,7.414,7.414,0,0,1,2.626-2.946,15.82,15.82,0,0,1,4.907-2.078,33.637,33.637,0,0,1,7.564-.925V98.8a3.93,3.93,0,0,0-1.125-3.117,5.445,5.445,0,0,0-3.608-.982,13.99,13.99,0,0,0-4.419.779,39.006,39.006,0,0,0-4.7,1.935L163.9,90.891a30.932,30.932,0,0,1,5.337-2.163,23.31,23.31,0,0,1,7.016-1.01,18.822,18.822,0,0,1,5.828.779,9.151,9.151,0,0,1,3.814,2.281,8.5,8.5,0,0,1,2.046,3.665,17.248,17.248,0,0,1,.551,5l-.06,7.966q0,1.387.405,1.733a3.452,3.452,0,0,0,1.79.459l-.865,6.351q-4.39.58-6.7-.488a6.149,6.149,0,0,1-3.231-3.263Zm-.057-8.717a17.664,17.664,0,0,0-5.831,1.356,2.875,2.875,0,0,0-1.672,2.683,2.619,2.619,0,0,0,.922,2.11,3.635,3.635,0,0,0,2.426.779,5.688,5.688,0,0,0,2.395-.491,5.055,5.055,0,0,0,1.761-1.3Z" transform="translate(141.947 -76.171)" fill="#009e98"/>
    </g>
    <g id="Group_4301" data-name="Group 4301" transform="translate(115.115 289.232)">
      <path id="Path_14653" data-name="Path 14653" d="M67.226,124.356V103.213h2.132v21.143Z" transform="translate(-64.961 -102.776)" fill="#fff"/>
      <path id="Path_14654" data-name="Path 14654" d="M84.052,103.213h2.129v21.346H83.815l-12.043-18.3v18.1H69.64V103.213h2.429l11.983,18.134Z" transform="translate(-59.729 -102.776)" fill="#fff"/>
      <path id="Path_14655" data-name="Path 14655" d="M85.545,105.247v19.11H83.413v-19.11h-7.44v-2.034H92.986v2.034Z" transform="translate(-46.002 -102.776)" fill="#fff"/>
      <path id="Path_14656" data-name="Path 14656" d="M82.455,124.356V103.213H95.207v2H84.587v7.612h8.863v1.926H84.587v7.612H95.207v2Z" transform="translate(-31.952 -102.776)" fill="#fff"/>
      <path id="Path_14657" data-name="Path 14657" d="M90,124.356H87.87V103.213h5.683q3.92,0,5.8,1.66a5.619,5.619,0,0,1,1.878,4.431,5.686,5.686,0,0,1-.39,2.148,5.872,5.872,0,0,1-1.048,1.71,6.4,6.4,0,0,1-1.555,1.267,9.008,9.008,0,0,1-1.91.83l5.85,9.1h-2.5l-5.426-8.726L90,115.9Zm3.82-10.554a7.225,7.225,0,0,0,2.008-.339,5.588,5.588,0,0,0,1.688-.862,4.091,4.091,0,0,0,1.159-1.368,3.976,3.976,0,0,0,.424-1.863,3.63,3.63,0,0,0-1.5-3.161,7.364,7.364,0,0,0-4.3-1.067H90v8.8Z" transform="translate(-20.215 -102.776)" fill="#fff"/>
      <path id="Path_14658" data-name="Path 14658" d="M107.928,103.213h2.132v21.346h-2.366l-12.043-18.3v18.1H93.519V103.213h2.43l11.98,18.134Z" transform="translate(-7.971 -102.776)" fill="#fff"/>
      <path id="Path_14659" data-name="Path 14659" d="M118.2,124.356H116L113.77,118.3H104.2l-2.233,6.053h-2.2l8.017-21.143h2.537ZM109,105.38l-4.061,10.994h8.087Z" transform="translate(5.57 -102.776)" fill="#fff"/>
      <path id="Path_14660" data-name="Path 14660" d="M115.033,105.247v19.11H112.9v-19.11h-7.444v-2.034h17.016v2.034Z" transform="translate(17.907 -102.776)" fill="#fff"/>
      <path id="Path_14661" data-name="Path 14661" d="M111.962,124.356V103.213h2.132v21.143Z" transform="translate(32.005 -102.776)" fill="#fff"/>
      <path id="Path_14662" data-name="Path 14662" d="M134.827,114a12.428,12.428,0,0,1-.776,4.466,10.529,10.529,0,0,1-2.167,3.5,9.85,9.85,0,0,1-3.3,2.3,10.356,10.356,0,0,1-4.178.83,10.474,10.474,0,0,1-4.092-.795,9.867,9.867,0,0,1-3.3-2.233,10.182,10.182,0,0,1-2.2-3.465,12.175,12.175,0,0,1-.8-4.466,12.36,12.36,0,0,1,.779-4.466,10.562,10.562,0,0,1,2.167-3.5,9.615,9.615,0,0,1,3.3-2.284,11.091,11.091,0,0,1,8.286-.016,9.715,9.715,0,0,1,3.3,2.23,10.405,10.405,0,0,1,2.182,3.453A12.023,12.023,0,0,1,134.827,114Zm-2.2.136a10.934,10.934,0,0,0-.608-3.722,8.448,8.448,0,0,0-1.71-2.892,7.6,7.6,0,0,0-2.62-1.859,8.244,8.244,0,0,0-3.316-.659,8.029,8.029,0,0,0-3.263.659,7.532,7.532,0,0,0-2.588,1.843,8.47,8.47,0,0,0-1.691,2.841,11.341,11.341,0,0,0,.016,7.374,8.857,8.857,0,0,0,1.726,2.908,7.51,7.51,0,0,0,2.623,1.878,8.218,8.218,0,0,0,3.313.659,7.912,7.912,0,0,0,3.247-.659,7.539,7.539,0,0,0,2.572-1.859,8.741,8.741,0,0,0,1.691-2.86A10.518,10.518,0,0,0,132.629,114.136Z" transform="translate(36.472 -103.075)" fill="#fff"/>
      <path id="Path_14663" data-name="Path 14663" d="M136.357,103.213h2.132v21.346h-2.369l-12.04-18.3v18.1h-2.132V103.213h2.429l11.98,18.134Z" transform="translate(53.65 -102.776)" fill="#fff"/>
      <path id="Path_14664" data-name="Path 14664" d="M146.63,124.356h-2.2L142.2,118.3h-9.572l-2.233,6.053h-2.2l8.017-21.143h2.537Zm-9.2-18.977-4.058,10.994h8.084Z" transform="translate(67.19 -102.776)" fill="#fff"/>
      <path id="Path_14665" data-name="Path 14665" d="M135.03,124.356V103.213h2.132v19.116h10.45v2.027Z" transform="translate(82.005 -102.776)" fill="#fff"/>
      <path id="Path_14666" data-name="Path 14666" d="M84.946,134.065h-2.2l-2.233-6.056H70.942l-2.233,6.056h-2.2l8.017-21.143h2.537Zm-9.2-18.98L71.687,126.08H79.77Z" transform="translate(-66.511 -81.731)" fill="#fff"/>
      <path id="Path_14667" data-name="Path 14667" d="M73.367,134.065V112.922H75.5v21.143Z" transform="translate(-51.65 -81.731)" fill="#fff"/>
      <path id="Path_14668" data-name="Path 14668" d="M77.913,134.065H75.781V112.922h5.683q3.92,0,5.8,1.657a5.623,5.623,0,0,1,1.878,4.431,5.7,5.7,0,0,1-.39,2.151,5.858,5.858,0,0,1-1.048,1.707,6.4,6.4,0,0,1-1.555,1.267,8.7,8.7,0,0,1-1.91.83l5.85,9.1h-2.5l-5.426-8.73-4.248.272Zm3.817-10.554a7.341,7.341,0,0,0,2.008-.339,5.589,5.589,0,0,0,1.688-.862,4.135,4.135,0,0,0,1.159-1.372,3.973,3.973,0,0,0,.424-1.859,3.632,3.632,0,0,0-1.5-3.164,7.364,7.364,0,0,0-4.3-1.064h-3.3v8.8Z" transform="translate(-46.418 -81.731)" fill="#fff"/>
      <path id="Path_14669" data-name="Path 14669" d="M94.993,119.517a6.2,6.2,0,0,1-2.29,5.245,10.334,10.334,0,0,1-6.259,1.824l-2.882.035v7.444H81.43V112.922h5.312a12.205,12.205,0,0,1,3.652.491,7.358,7.358,0,0,1,2.572,1.353,5.46,5.46,0,0,1,1.52,2.081A6.867,6.867,0,0,1,94.993,119.517Zm-2.23.1a4.172,4.172,0,0,0-1.562-3.487,7.3,7.3,0,0,0-4.552-1.216H83.562v9.708l3.022-.067a7.785,7.785,0,0,0,4.6-1.27A4.316,4.316,0,0,0,92.763,119.621Z" transform="translate(-34.174 -81.731)" fill="#fff"/>
      <path id="Path_14670" data-name="Path 14670" d="M107.424,123.708a12.389,12.389,0,0,1-.779,4.469,10.586,10.586,0,0,1-2.163,3.5,9.941,9.941,0,0,1-3.3,2.3,10.958,10.958,0,0,1-8.274.032,9.888,9.888,0,0,1-3.3-2.23,10.268,10.268,0,0,1-2.2-3.468,12.161,12.161,0,0,1-.8-4.466,12.356,12.356,0,0,1,.779-4.463,10.518,10.518,0,0,1,2.163-3.5,9.667,9.667,0,0,1,3.3-2.281,11.079,11.079,0,0,1,8.289-.019,9.725,9.725,0,0,1,3.3,2.233,10.423,10.423,0,0,1,2.182,3.449A12.037,12.037,0,0,1,107.424,123.708Zm-2.2.136a10.916,10.916,0,0,0-.608-3.719,8.469,8.469,0,0,0-1.71-2.892,7.61,7.61,0,0,0-2.62-1.863,8.254,8.254,0,0,0-3.316-.659,8.044,8.044,0,0,0-3.266.659,7.594,7.594,0,0,0-2.585,1.844,8.561,8.561,0,0,0-1.695,2.841,11.369,11.369,0,0,0,.019,7.374,8.872,8.872,0,0,0,1.726,2.911,7.479,7.479,0,0,0,2.62,1.875,8.245,8.245,0,0,0,3.316.662,7.912,7.912,0,0,0,3.247-.662,7.5,7.5,0,0,0,2.572-1.859,8.749,8.749,0,0,0,1.691-2.857A10.549,10.549,0,0,0,105.226,123.844Z" transform="translate(-22.924 -82.033)" fill="#fff"/>
      <path id="Path_14671" data-name="Path 14671" d="M96.676,134.065H94.544V112.922h5.683q3.925,0,5.8,1.657a5.623,5.623,0,0,1,1.878,4.431,5.7,5.7,0,0,1-.39,2.151,5.858,5.858,0,0,1-1.048,1.707,6.351,6.351,0,0,1-1.558,1.267,8.566,8.566,0,0,1-1.91.83l5.85,9.1h-2.5l-5.423-8.73-4.251.272Zm3.817-10.554a7.343,7.343,0,0,0,2.011-.339,5.534,5.534,0,0,0,1.685-.862,4.107,4.107,0,0,0,1.162-1.372,3.973,3.973,0,0,0,.424-1.859,3.632,3.632,0,0,0-1.5-3.164,7.365,7.365,0,0,0-4.3-1.064H96.676v8.8Z" transform="translate(-5.749 -81.731)" fill="#fff"/>
      <path id="Path_14672" data-name="Path 14672" d="M109,114.952v19.113h-2.132V114.952H99.425v-2.03h17.013v2.03Z" transform="translate(4.831 -81.731)" fill="#fff"/>
      <path id="Path_14673" data-name="Path 14673" d="M76.9,132.972a6.341,6.341,0,0,1,3.519,1.771,4.5,4.5,0,0,1,1.194,3.158,6.249,6.249,0,0,1-.437,2.363,4.693,4.693,0,0,1-1.365,1.856,6.67,6.67,0,0,1-2.357,1.216,11.741,11.741,0,0,1-3.415.437H67.205V122.63h6.579a11.429,11.429,0,0,1,3.256.409,6.132,6.132,0,0,1,2.246,1.153,4.484,4.484,0,0,1,1.283,1.745,5.883,5.883,0,0,1,.4,2.22A4.91,4.91,0,0,1,80,131.071,5.216,5.216,0,0,1,76.9,132.972Zm1.942-4.659a3.388,3.388,0,0,0-1.207-2.746,5.775,5.775,0,0,0-3.75-1.007H69.337v7.681h4.21a6.6,6.6,0,0,0,3.852-1.007A3.338,3.338,0,0,0,78.842,128.313Zm.643,9.591A3.1,3.1,0,0,0,78,135.1a8.235,8.235,0,0,0-4.33-.931h-4.33v7.675h4.872a6.226,6.226,0,0,0,4.042-1.052A3.6,3.6,0,0,0,79.485,137.9Z" transform="translate(-65.007 -60.689)" fill="#fff"/>
      <path id="Path_14674" data-name="Path 14674" d="M73.079,143.773V122.63H85.831v2H75.211v7.612h8.86v1.929h-8.86v7.608H85.831v2Z" transform="translate(-52.275 -60.689)" fill="#fff"/>
      <path id="Path_14675" data-name="Path 14675" d="M92.9,122.63h2.132v21.346H92.668l-12.043-18.3v18.1H78.493V122.63h2.43L92.9,140.764Z" transform="translate(-40.54 -60.689)" fill="#fff"/>
      <path id="Path_14676" data-name="Path 14676" d="M99.035,143.99a14.122,14.122,0,0,1-3.738.523,10.8,10.8,0,0,1-4.178-.779,9.323,9.323,0,0,1-3.231-2.2,9.726,9.726,0,0,1-2.081-3.449,13.368,13.368,0,0,1-.725-4.533,12.947,12.947,0,0,1,.76-4.568,10.286,10.286,0,0,1,2.132-3.484,9.33,9.33,0,0,1,3.231-2.233,10.538,10.538,0,0,1,4.092-.776,13.4,13.4,0,0,1,3.738.513A13.088,13.088,0,0,1,102,124.222l-.713,1.957a10.8,10.8,0,0,0-2.772-1.27,11,11,0,0,0-3.25-.488,8.185,8.185,0,0,0-3.18.608,7.176,7.176,0,0,0-2.518,1.767,8.327,8.327,0,0,0-1.676,2.835,11.286,11.286,0,0,0-.608,3.852,11.664,11.664,0,0,0,.573,3.788,8.226,8.226,0,0,0,1.638,2.87,7.077,7.077,0,0,0,2.531,1.815,8.29,8.29,0,0,0,3.288.627,10.242,10.242,0,0,0,2.784-.355,10,10,0,0,0,2.277-.938v-5.774H94.249v-1.929H102.5v8.834A11.7,11.7,0,0,1,99.035,143.99Z" transform="translate(-26.258 -60.988)" fill="#fff"/>
      <path id="Path_14677" data-name="Path 14677" d="M109.957,143.773h-2.2l-2.233-6.053H95.953l-2.233,6.053h-2.2l8.017-21.143h2.537Zm-9.2-18.977L96.7,135.791h8.084Z" transform="translate(-12.299 -60.689)" fill="#fff"/>
      <path id="Path_14678" data-name="Path 14678" d="M98.357,143.773V122.63h2.132v19.116h10.453v2.027Z" transform="translate(2.516 -60.689)" fill="#fff"/>
      <path id="Path_14679" data-name="Path 14679" d="M118.65,139.225a7.277,7.277,0,0,1-1.52,2.689,6.621,6.621,0,0,1-2.505,1.707,10.35,10.35,0,0,1-6.848.019A6.781,6.781,0,0,1,105.289,142a6.994,6.994,0,0,1-1.539-2.588,10.293,10.293,0,0,1-.523-3.386v-13.4h2.129v13.126a7.07,7.07,0,0,0,1.467,4.751,5.529,5.529,0,0,0,4.438,1.71,5.448,5.448,0,0,0,4.3-1.657,7.1,7.1,0,0,0,1.463-4.837V122.63h2.132v13.06A11.465,11.465,0,0,1,118.65,139.225Z" transform="translate(13.072 -60.689)" fill="#fff"/>
      <path id="Path_14680" data-name="Path 14680" d="M112.012,143.773H109.88V122.63h5.683q3.92,0,5.8,1.66a5.619,5.619,0,0,1,1.878,4.431,5.687,5.687,0,0,1-.39,2.148,5.751,5.751,0,0,1-1.048,1.707,6.41,6.41,0,0,1-1.555,1.27,9.013,9.013,0,0,1-1.91.83l5.85,9.1h-2.5l-5.426-8.726-4.248.269Zm3.817-10.554a7.27,7.27,0,0,0,2.011-.339,5.607,5.607,0,0,0,1.685-.862,4.092,4.092,0,0,0,1.159-1.368,3.976,3.976,0,0,0,.424-1.863,3.622,3.622,0,0,0-1.5-3.161,7.357,7.357,0,0,0-4.3-1.067h-3.3v8.8Z" transform="translate(27.492 -60.689)" fill="#fff"/>
      <path id="Path_14681" data-name="Path 14681" d="M130.878,139.225a7.277,7.277,0,0,1-1.52,2.689,6.622,6.622,0,0,1-2.506,1.707,10.35,10.35,0,0,1-6.848.019A6.781,6.781,0,0,1,117.517,142a7,7,0,0,1-1.539-2.588,10.293,10.293,0,0,1-.523-3.386v-13.4h2.129v13.126a7.07,7.07,0,0,0,1.467,4.751,5.529,5.529,0,0,0,4.438,1.71,5.443,5.443,0,0,0,4.3-1.657,7.1,7.1,0,0,0,1.463-4.837V122.63h2.132v13.06A11.464,11.464,0,0,1,130.878,139.225Z" transform="translate(39.576 -60.689)" fill="#fff"/>
    </g>
  </g>
</svg>
